# xmcd CD database file
#
# Track frame offsets:
#	150
#	19022
#	29672
#	48315
#	59080
#	75737
#	93000
#	104430
#	125975
#	137460
#	154902
#	174792
#
# Disc length: 2610 seconds
#
# Revision: 19
# Processed by: cddbd v1.5.2PL0 Copyright (c) Steve Scherf et al.
# Submitted via: CDex 1.70beta3
#
DISCID=9b0a300c
DTITLE=BOØWY - PSYCHOPATH
DYEAR=1987
DGENRE=J-Rock
TTITLE0=LIAR GIRL
TTITLE1=ANGEL PASSED CHILDREN
TTITLE2=LONGER THAN FOREVER
TTITLE3=GIGOLO and GIGOLET
TTITLE4=RENDEZ-VOUS (LIVE IN HAMBURG JULY 1987)
TTITLE5=MARIONETTE
TTITLE6=PLASTIC BOMB
TTITLE7=Psychopath
TTITLE8=CELLULOID DOLL
TTITLE9=FANTASTIC STORY
TTITLE10=MEMORY
TTITLE11=季節が君だけを変える
EXTD=YEAR: 1987
EXTT0=
EXTT1=
EXTT2=
EXTT3=
EXTT4=
EXTT5=
EXTT6=
EXTT7=
EXTT8=
EXTT9=
EXTT10=
EXTT11=
PLAYORDER=
